<svg xmlns="http://www.w3.org/2000/svg" xmlns:v="https://svgstorm.com"
viewBox = "0 0 1886 1357"
width="1886"
height="1357">
<g fill="#000000" fill-opacity="1.00" stroke="None">
<path d="
M 0.00 1357.00 
L 1886.00 1357.00
L 1886.00 0.00
L 0.00 0.00
L 0.00 1357.00
M 933.00 334.00 
C 933.00 508.66 933.00 683.34 933.00 858.00
C 907.00 858.00 881.00 858.00 855.00 858.00
C 855.00 802.67 855.00 747.33 855.00 692.00
C 816.76 693.03 778.53 694.11 740.00 694.00
C 740.00 667.33 740.00 640.67 740.00 614.00
C 778.43 614.05 816.41 612.29 855.00 613.00
C 855.00 554.67 855.00 496.33 855.00 438.00
C 762.20 476.89 700.16 568.73 697.00 669.00 C 693.84 769.27 748.34 866.44 840.69 912.31 C 933.05 958.17 1058.08 945.84 1134.00 871.00
C 1134.00 905.67 1134.00 940.33 1134.00 975.00
C 1096.98 996.20 1061.48 1008.73 1019.33 1017.33 C 977.18 1025.93 916.99 1024.18 876.33 1013.67 C 835.66 1003.17 800.22 988.14 766.75 965.25 C 733.28 942.35 709.58 921.48 684.75 889.25 C 659.92 857.02 643.88 824.85 630.22 785.78 C 616.57 746.70 610.77 690.27 614.78 647.78 C 618.79 605.29 630.53 560.72 649.31 524.31 C 668.08 487.89 686.72 461.55 715.75 432.75 C 744.79 403.96 772.08 385.67 808.23 367.23 C 844.38 348.78 891.70 337.50 933.00 334.00
M 1052.00 347.00 
C 1052.00 432.33 1052.00 517.67 1052.00 603.00
C 1085.42 570.70 1115.69 535.30 1149.00 503.00
C 1144.50 490.70 1129.73 489.83 1131.00 475.00 C 1132.27 460.17 1130.34 443.23 1131.00 428.00 C 1131.66 412.77 1130.50 396.34 1131.00 381.00
C 1139.42 386.17 1148.19 391.00 1156.08 396.92 C 1163.97 402.84 1172.34 408.76 1179.75 415.25 C 1187.16 421.75 1194.38 428.64 1201.25 435.75 C 1208.12 442.87 1215.66 450.03 1221.30 457.70 C 1226.94 465.37 1235.69 473.06 1239.75 481.25 C 1243.82 489.43 1253.93 498.84 1255.92 507.08 C 1257.91 515.32 1242.71 521.62 1237.75 528.75 C 1232.79 535.89 1222.69 542.76 1217.23 550.23 C 1211.77 557.70 1202.64 564.07 1196.25 571.25 C 1189.85 578.42 1181.77 585.20 1175.70 592.70 C 1169.62 600.19 1161.36 606.54 1154.75 613.75 C 1148.14 620.96 1140.25 627.62 1134.08 635.08 C 1127.91 642.55 1119.93 649.38 1113.00 656.00
C 1122.66 666.63 1133.08 676.51 1143.25 686.75 C 1153.42 697.00 1163.47 707.02 1173.75 717.25 C 1184.03 727.48 1193.79 737.50 1204.25 747.75 C 1214.71 758.00 1223.91 767.92 1234.75 778.25 C 1245.59 788.57 1253.59 798.25 1265.25 808.75 C 1276.91 819.25 1263.32 835.62 1257.08 848.08 C 1250.83 860.53 1240.55 873.10 1233.00 885.00
C 1171.97 827.66 1112.74 767.69 1052.00 710.00
C 1052.00 759.34 1052.00 808.66 1052.00 858.00
C 1024.67 858.00 997.33 858.00 970.00 858.00
C 970.00 683.33 970.00 508.67 970.00 334.00
C 998.25 334.66 1025.55 339.31 1052.00 347.00 Z"/>
</g>
<g fill="#FFFFFF" fill-opacity="1.00" stroke="None">
<path d="
M 933.00 334.00 
C 891.70 337.50 844.38 348.78 808.23 367.23 C 772.08 385.67 744.79 403.96 715.75 432.75 C 686.72 461.55 668.08 487.89 649.31 524.31 C 630.53 560.72 618.79 605.29 614.78 647.78 C 610.77 690.27 616.57 746.70 630.22 785.78 C 643.88 824.85 659.92 857.02 684.75 889.25 C 709.58 921.48 733.28 942.35 766.75 965.25 C 800.22 988.14 835.66 1003.17 876.33 1013.67 C 916.99 1024.18 977.18 1025.93 1019.33 1017.33 C 1061.48 1008.73 1096.98 996.20 1134.00 975.00
C 1134.00 940.33 1134.00 905.67 1134.00 871.00
C 1058.08 945.84 933.05 958.17 840.69 912.31 C 748.34 866.44 693.84 769.27 697.00 669.00 C 700.16 568.73 762.20 476.89 855.00 438.00
C 855.00 496.33 855.00 554.67 855.00 613.00
C 816.41 612.29 778.43 614.05 740.00 614.00
C 740.00 640.67 740.00 667.33 740.00 694.00
C 778.53 694.11 816.76 693.03 855.00 692.00
C 855.00 747.33 855.00 802.67 855.00 858.00
C 881.00 858.00 907.00 858.00 933.00 858.00
C 933.00 683.34 933.00 508.66 933.00 334.00 Z"/>
</g>
<g fill="#FFFFFF" fill-opacity="1.00" stroke="None">
<path d="
M 1052.00 347.00 
C 1025.55 339.31 998.25 334.66 970.00 334.00
C 970.00 508.67 970.00 683.33 970.00 858.00
C 997.33 858.00 1024.67 858.00 1052.00 858.00
C 1052.00 808.66 1052.00 759.34 1052.00 710.00
C 1112.74 767.69 1171.97 827.66 1233.00 885.00
C 1240.55 873.10 1250.83 860.53 1257.08 848.08 C 1263.32 835.62 1276.91 819.25 1265.25 808.75 C 1253.59 798.25 1245.59 788.57 1234.75 778.25 C 1223.91 767.92 1214.71 758.00 1204.25 747.75 C 1193.79 737.50 1184.03 727.48 1173.75 717.25 C 1163.47 707.02 1153.42 697.00 1143.25 686.75 C 1133.08 676.51 1122.66 666.63 1113.00 656.00
C 1119.93 649.38 1127.91 642.55 1134.08 635.08 C 1140.25 627.62 1148.14 620.96 1154.75 613.75 C 1161.36 606.54 1169.62 600.19 1175.70 592.70 C 1181.77 585.20 1189.85 578.42 1196.25 571.25 C 1202.64 564.07 1211.77 557.70 1217.23 550.23 C 1222.69 542.76 1232.79 535.89 1237.75 528.75 C 1242.71 521.62 1257.91 515.32 1255.92 507.08 C 1253.93 498.84 1243.82 489.43 1239.75 481.25 C 1235.69 473.06 1226.94 465.37 1221.30 457.70 C 1215.66 450.03 1208.12 442.87 1201.25 435.75 C 1194.38 428.64 1187.16 421.75 1179.75 415.25 C 1172.34 408.76 1163.97 402.84 1156.08 396.92 C 1148.19 391.00 1139.42 386.17 1131.00 381.00
C 1130.50 396.34 1131.66 412.77 1131.00 428.00 C 1130.34 443.23 1132.27 460.17 1131.00 475.00 C 1129.73 489.83 1144.50 490.70 1149.00 503.00
C 1115.69 535.30 1085.42 570.70 1052.00 603.00
C 1052.00 517.67 1052.00 432.33 1052.00 347.00 Z"/>
</g>
</svg>